<mxfile host="drawio-plugin" modified="2024-06-19T07:47:47.772Z" agent="Mozilla/5.0 (X11; Linux x86_64) AppleWebKit/537.36 (KHTML, like Gecko) Chrome/122.0.0.0 Safari/537.36" etag="PmcoBIbTQaIx_lhZogTW" version="22.1.22" type="embed" pages="6">
  <diagram name="Framework" id="CnW_uup-KwWFPFQ_-pxT">
    <mxGraphModel dx="1550" dy="1128" grid="1" gridSize="10" guides="1" tooltips="1" connect="1" arrows="1" fold="1" page="1" pageScale="1" pageWidth="1600" pageHeight="1200" math="0" shadow="0">
      <root>
        <mxCell id="zfkhhD0QaaSfa7tD3gnL-0" />
        <mxCell id="zfkhhD0QaaSfa7tD3gnL-1" parent="zfkhhD0QaaSfa7tD3gnL-0" />
        <mxCell id="zfkhhD0QaaSfa7tD3gnL-2" style="edgeStyle=orthogonalEdgeStyle;rounded=0;orthogonalLoop=1;jettySize=auto;html=1;" parent="zfkhhD0QaaSfa7tD3gnL-1" source="zfkhhD0QaaSfa7tD3gnL-3" target="zfkhhD0QaaSfa7tD3gnL-5" edge="1">
          <mxGeometry relative="1" as="geometry" />
        </mxCell>
        <mxCell id="zfkhhD0QaaSfa7tD3gnL-3" value="Front Controller" style="rounded=0;whiteSpace=wrap;html=1;" parent="zfkhhD0QaaSfa7tD3gnL-1" vertex="1">
          <mxGeometry x="440" y="480" width="160" height="80" as="geometry" />
        </mxCell>
        <mxCell id="zfkhhD0QaaSfa7tD3gnL-4" style="edgeStyle=orthogonalEdgeStyle;rounded=0;orthogonalLoop=1;jettySize=auto;html=1;entryX=0;entryY=0.5;entryDx=0;entryDy=0;exitX=1;exitY=0.5;exitDx=0;exitDy=0;" parent="zfkhhD0QaaSfa7tD3gnL-1" source="zfkhhD0QaaSfa7tD3gnL-5" target="zfkhhD0QaaSfa7tD3gnL-7" edge="1">
          <mxGeometry relative="1" as="geometry" />
        </mxCell>
        <mxCell id="zfkhhD0QaaSfa7tD3gnL-5" value="Kernel" style="rounded=0;whiteSpace=wrap;html=1;" parent="zfkhhD0QaaSfa7tD3gnL-1" vertex="1">
          <mxGeometry x="720" y="480" width="160" height="80" as="geometry" />
        </mxCell>
        <mxCell id="zfkhhD0QaaSfa7tD3gnL-6" style="edgeStyle=orthogonalEdgeStyle;rounded=0;orthogonalLoop=1;jettySize=auto;html=1;entryX=0.5;entryY=0;entryDx=0;entryDy=0;exitX=0.125;exitY=1.025;exitDx=0;exitDy=0;exitPerimeter=0;" parent="zfkhhD0QaaSfa7tD3gnL-1" source="zfkhhD0QaaSfa7tD3gnL-7" target="zfkhhD0QaaSfa7tD3gnL-26" edge="1">
          <mxGeometry relative="1" as="geometry">
            <Array as="points">
              <mxPoint x="1019" y="562" />
              <mxPoint x="1019" y="640" />
              <mxPoint x="800" y="640" />
            </Array>
          </mxGeometry>
        </mxCell>
        <mxCell id="zfkhhD0QaaSfa7tD3gnL-7" value="Controller" style="rounded=0;whiteSpace=wrap;html=1;" parent="zfkhhD0QaaSfa7tD3gnL-1" vertex="1">
          <mxGeometry x="1000" y="480" width="160" height="80" as="geometry" />
        </mxCell>
        <mxCell id="zfkhhD0QaaSfa7tD3gnL-8" style="edgeStyle=orthogonalEdgeStyle;rounded=0;orthogonalLoop=1;jettySize=auto;html=1;entryX=0;entryY=0.5;entryDx=0;entryDy=0;" parent="zfkhhD0QaaSfa7tD3gnL-1" source="zfkhhD0QaaSfa7tD3gnL-9" target="zfkhhD0QaaSfa7tD3gnL-3" edge="1">
          <mxGeometry relative="1" as="geometry" />
        </mxCell>
        <mxCell id="zfkhhD0QaaSfa7tD3gnL-9" value="Request" style="strokeWidth=2;html=1;shape=mxgraph.flowchart.terminator;whiteSpace=wrap;" parent="zfkhhD0QaaSfa7tD3gnL-1" vertex="1">
          <mxGeometry x="160" y="490" width="160" height="60" as="geometry" />
        </mxCell>
        <mxCell id="zfkhhD0QaaSfa7tD3gnL-10" value="Response" style="strokeWidth=2;html=1;shape=mxgraph.flowchart.terminator;whiteSpace=wrap;" parent="zfkhhD0QaaSfa7tD3gnL-1" vertex="1">
          <mxGeometry x="1280" y="490" width="160" height="60" as="geometry" />
        </mxCell>
        <mxCell id="zfkhhD0QaaSfa7tD3gnL-11" style="edgeStyle=orthogonalEdgeStyle;rounded=0;orthogonalLoop=1;jettySize=auto;html=1;entryX=0.75;entryY=0;entryDx=0;entryDy=0;exitX=0.75;exitY=1.025;exitDx=0;exitDy=0;exitPerimeter=0;endArrow=none;endFill=0;" parent="zfkhhD0QaaSfa7tD3gnL-1" source="zfkhhD0QaaSfa7tD3gnL-14" target="zfkhhD0QaaSfa7tD3gnL-7" edge="1">
          <mxGeometry relative="1" as="geometry">
            <mxPoint x="1080" y="360" as="sourcePoint" />
          </mxGeometry>
        </mxCell>
        <mxCell id="zfkhhD0QaaSfa7tD3gnL-12" value="public/index.php" style="text;html=1;align=center;verticalAlign=middle;resizable=0;points=[];autosize=1;strokeColor=none;fillColor=none;" parent="zfkhhD0QaaSfa7tD3gnL-1" vertex="1">
          <mxGeometry x="465" y="560" width="110" height="30" as="geometry" />
        </mxCell>
        <mxCell id="zfkhhD0QaaSfa7tD3gnL-13" value="src/Kernel.php" style="text;html=1;align=center;verticalAlign=middle;resizable=0;points=[];autosize=1;strokeColor=none;fillColor=none;" parent="zfkhhD0QaaSfa7tD3gnL-1" vertex="1">
          <mxGeometry x="750" y="560" width="100" height="30" as="geometry" />
        </mxCell>
        <mxCell id="zfkhhD0QaaSfa7tD3gnL-14" value="Databases" style="strokeWidth=2;html=1;shape=mxgraph.flowchart.database;whiteSpace=wrap;" parent="zfkhhD0QaaSfa7tD3gnL-1" vertex="1">
          <mxGeometry x="1000" y="80" width="160" height="80" as="geometry" />
        </mxCell>
        <mxCell id="zfkhhD0QaaSfa7tD3gnL-15" style="edgeStyle=orthogonalEdgeStyle;rounded=0;orthogonalLoop=1;jettySize=auto;html=1;entryX=0;entryY=0.5;entryDx=0;entryDy=0;entryPerimeter=0;" parent="zfkhhD0QaaSfa7tD3gnL-1" source="zfkhhD0QaaSfa7tD3gnL-7" target="zfkhhD0QaaSfa7tD3gnL-10" edge="1">
          <mxGeometry relative="1" as="geometry" />
        </mxCell>
        <mxCell id="zfkhhD0QaaSfa7tD3gnL-16" style="edgeStyle=orthogonalEdgeStyle;rounded=0;orthogonalLoop=1;jettySize=auto;html=1;entryX=0.25;entryY=1;entryDx=0;entryDy=0;exitX=0.25;exitY=0;exitDx=0;exitDy=0;" parent="zfkhhD0QaaSfa7tD3gnL-1" target="zfkhhD0QaaSfa7tD3gnL-18" edge="1">
          <mxGeometry relative="1" as="geometry">
            <mxPoint x="760" y="480" as="sourcePoint" />
          </mxGeometry>
        </mxCell>
        <mxCell id="zfkhhD0QaaSfa7tD3gnL-17" style="edgeStyle=orthogonalEdgeStyle;rounded=0;orthogonalLoop=1;jettySize=auto;html=1;exitX=0.75;exitY=1;exitDx=0;exitDy=0;" parent="zfkhhD0QaaSfa7tD3gnL-1" source="zfkhhD0QaaSfa7tD3gnL-18" edge="1">
          <mxGeometry relative="1" as="geometry">
            <mxPoint x="840" y="480" as="targetPoint" />
          </mxGeometry>
        </mxCell>
        <mxCell id="zfkhhD0QaaSfa7tD3gnL-18" value="Routing" style="rounded=0;whiteSpace=wrap;html=1;" parent="zfkhhD0QaaSfa7tD3gnL-1" vertex="1">
          <mxGeometry x="720" y="280" width="160" height="80" as="geometry" />
        </mxCell>
        <mxCell id="zx1N9MPbAr6mNwclZLOI-0" style="edgeStyle=orthogonalEdgeStyle;rounded=0;orthogonalLoop=1;jettySize=auto;html=1;exitX=0.5;exitY=1;exitDx=0;exitDy=0;" parent="zfkhhD0QaaSfa7tD3gnL-1" source="zfkhhD0QaaSfa7tD3gnL-26" edge="1">
          <mxGeometry relative="1" as="geometry">
            <mxPoint x="1060" y="560" as="targetPoint" />
            <Array as="points">
              <mxPoint x="800" y="800" />
              <mxPoint x="1060" y="800" />
            </Array>
          </mxGeometry>
        </mxCell>
        <mxCell id="zfkhhD0QaaSfa7tD3gnL-26" value="Design Patterns" style="verticalLabelPosition=middle;verticalAlign=middle;html=1;shape=trapezoid;perimeter=trapezoidPerimeter;whiteSpace=wrap;size=0.23;arcSize=10;flipV=1;labelPosition=center;align=center;" parent="zfkhhD0QaaSfa7tD3gnL-1" vertex="1">
          <mxGeometry x="720" y="680" width="160" height="80" as="geometry" />
        </mxCell>
        <mxCell id="zfkhhD0QaaSfa7tD3gnL-27" style="edgeStyle=orthogonalEdgeStyle;rounded=0;orthogonalLoop=1;jettySize=auto;html=1;entryX=0.25;entryY=1.013;entryDx=0;entryDy=0;entryPerimeter=0;endArrow=none;endFill=0;exitX=0.5;exitY=0;exitDx=0;exitDy=0;exitPerimeter=0;" parent="zfkhhD0QaaSfa7tD3gnL-1" source="zfkhhD0QaaSfa7tD3gnL-28" edge="1">
          <mxGeometry relative="1" as="geometry">
            <mxPoint x="880" y="320" as="sourcePoint" />
            <mxPoint x="1040" y="161" as="targetPoint" />
          </mxGeometry>
        </mxCell>
        <mxCell id="zfkhhD0QaaSfa7tD3gnL-28" value="Cache" style="strokeWidth=2;html=1;shape=mxgraph.flowchart.direct_data;whiteSpace=wrap;" parent="zfkhhD0QaaSfa7tD3gnL-1" vertex="1">
          <mxGeometry x="990" y="290" width="100" height="60" as="geometry" />
        </mxCell>
        <mxCell id="zfkhhD0QaaSfa7tD3gnL-29" style="edgeStyle=orthogonalEdgeStyle;rounded=0;orthogonalLoop=1;jettySize=auto;html=1;entryX=0.5;entryY=1;entryDx=0;entryDy=0;entryPerimeter=0;exitX=0.25;exitY=0;exitDx=0;exitDy=0;endArrow=none;endFill=0;" parent="zfkhhD0QaaSfa7tD3gnL-1" target="zfkhhD0QaaSfa7tD3gnL-28" edge="1">
          <mxGeometry relative="1" as="geometry">
            <mxPoint x="1040" y="480" as="sourcePoint" />
          </mxGeometry>
        </mxCell>
        <mxCell id="1GDWyFlp9GgyleiQa_Ey-0" value="Templates" style="strokeWidth=1;html=1;shape=mxgraph.flowchart.document2;whiteSpace=wrap;size=0.25;" parent="zfkhhD0QaaSfa7tD3gnL-1" vertex="1">
          <mxGeometry x="1000" y="880" width="160" height="80" as="geometry" />
        </mxCell>
        <mxCell id="1GDWyFlp9GgyleiQa_Ey-1" style="edgeStyle=orthogonalEdgeStyle;rounded=0;orthogonalLoop=1;jettySize=auto;html=1;startArrow=classic;startFill=1;endArrow=none;endFill=0;entryX=0.875;entryY=-0.025;entryDx=0;entryDy=0;entryPerimeter=0;" parent="zfkhhD0QaaSfa7tD3gnL-1" target="1GDWyFlp9GgyleiQa_Ey-0" edge="1">
          <mxGeometry relative="1" as="geometry">
            <mxPoint x="1140" y="560" as="sourcePoint" />
            <mxPoint x="1290" y="730" as="targetPoint" />
          </mxGeometry>
        </mxCell>
        <mxCell id="1GDWyFlp9GgyleiQa_Ey-2" style="edgeStyle=orthogonalEdgeStyle;rounded=0;orthogonalLoop=1;jettySize=auto;html=1;exitX=0.625;exitY=1.025;exitDx=0;exitDy=0;exitPerimeter=0;" parent="zfkhhD0QaaSfa7tD3gnL-1" source="zfkhhD0QaaSfa7tD3gnL-7" edge="1">
          <mxGeometry relative="1" as="geometry">
            <mxPoint x="1100" y="880" as="targetPoint" />
          </mxGeometry>
        </mxCell>
      </root>
    </mxGraphModel>
  </diagram>
  <diagram name="Configurations" id="nSLMvqq1_s9JcMIWVHJ0">
    <mxGraphModel dx="1550" dy="1128" grid="1" gridSize="10" guides="1" tooltips="1" connect="1" arrows="1" fold="1" page="1" pageScale="1" pageWidth="1600" pageHeight="1200" math="0" shadow="0">
      <root>
        <mxCell id="tFxSJcbVjkW49yoVQv_u-0" />
        <mxCell id="tFxSJcbVjkW49yoVQv_u-1" parent="tFxSJcbVjkW49yoVQv_u-0" />
        <mxCell id="9fxciIHvsaQsYW9dtywq-3" value="" style="verticalLabelPosition=bottom;verticalAlign=top;html=1;shape=mxgraph.basic.rect;fillColor2=none;strokeWidth=2;size=20;indent=5;fillColor=#f5f5f5;fontColor=#333333;strokeColor=#666666;" parent="tFxSJcbVjkW49yoVQv_u-1" vertex="1">
          <mxGeometry x="440" y="280" width="800" height="560" as="geometry" />
        </mxCell>
        <mxCell id="9fxciIHvsaQsYW9dtywq-2" value="" style="verticalLabelPosition=bottom;verticalAlign=top;html=1;shape=mxgraph.basic.rect;fillColor2=none;strokeWidth=2;size=20;indent=5;fillColor=#f5f5f5;fontColor=#333333;strokeColor=#666666;" parent="tFxSJcbVjkW49yoVQv_u-1" vertex="1">
          <mxGeometry x="400" y="240" width="800" height="560" as="geometry" />
        </mxCell>
        <mxCell id="tFxSJcbVjkW49yoVQv_u-2" style="edgeStyle=orthogonalEdgeStyle;rounded=0;orthogonalLoop=1;jettySize=auto;html=1;" parent="tFxSJcbVjkW49yoVQv_u-1" source="tFxSJcbVjkW49yoVQv_u-3" target="tFxSJcbVjkW49yoVQv_u-5" edge="1">
          <mxGeometry relative="1" as="geometry" />
        </mxCell>
        <mxCell id="tFxSJcbVjkW49yoVQv_u-3" value="Front Controller" style="rounded=0;whiteSpace=wrap;html=1;" parent="tFxSJcbVjkW49yoVQv_u-1" vertex="1">
          <mxGeometry x="440" y="480" width="160" height="80" as="geometry" />
        </mxCell>
        <mxCell id="tFxSJcbVjkW49yoVQv_u-4" style="edgeStyle=orthogonalEdgeStyle;rounded=0;orthogonalLoop=1;jettySize=auto;html=1;entryX=0;entryY=0.5;entryDx=0;entryDy=0;" parent="tFxSJcbVjkW49yoVQv_u-1" source="tFxSJcbVjkW49yoVQv_u-5" target="tFxSJcbVjkW49yoVQv_u-7" edge="1">
          <mxGeometry relative="1" as="geometry" />
        </mxCell>
        <mxCell id="tFxSJcbVjkW49yoVQv_u-5" value="Kernel" style="rounded=0;whiteSpace=wrap;html=1;" parent="tFxSJcbVjkW49yoVQv_u-1" vertex="1">
          <mxGeometry x="720" y="480" width="160" height="80" as="geometry" />
        </mxCell>
        <mxCell id="tFxSJcbVjkW49yoVQv_u-6" style="edgeStyle=orthogonalEdgeStyle;rounded=0;orthogonalLoop=1;jettySize=auto;html=1;entryX=0.25;entryY=0;entryDx=0;entryDy=0;exitX=0.25;exitY=1;exitDx=0;exitDy=0;" parent="tFxSJcbVjkW49yoVQv_u-1" edge="1">
          <mxGeometry relative="1" as="geometry">
            <mxPoint x="1040" y="360" as="sourcePoint" />
            <mxPoint x="1040" y="680" as="targetPoint" />
          </mxGeometry>
        </mxCell>
        <mxCell id="tFxSJcbVjkW49yoVQv_u-7" value="Controller" style="rounded=0;whiteSpace=wrap;html=1;" parent="tFxSJcbVjkW49yoVQv_u-1" vertex="1">
          <mxGeometry x="1000" y="480" width="160" height="80" as="geometry" />
        </mxCell>
        <mxCell id="tFxSJcbVjkW49yoVQv_u-8" style="edgeStyle=orthogonalEdgeStyle;rounded=0;orthogonalLoop=1;jettySize=auto;html=1;entryX=0;entryY=0.5;entryDx=0;entryDy=0;" parent="tFxSJcbVjkW49yoVQv_u-1" source="tFxSJcbVjkW49yoVQv_u-9" target="tFxSJcbVjkW49yoVQv_u-3" edge="1">
          <mxGeometry relative="1" as="geometry" />
        </mxCell>
        <mxCell id="tFxSJcbVjkW49yoVQv_u-9" value="Request" style="strokeWidth=2;html=1;shape=mxgraph.flowchart.terminator;whiteSpace=wrap;" parent="tFxSJcbVjkW49yoVQv_u-1" vertex="1">
          <mxGeometry x="160" y="490" width="160" height="60" as="geometry" />
        </mxCell>
        <mxCell id="tFxSJcbVjkW49yoVQv_u-10" value="Response" style="strokeWidth=2;html=1;shape=mxgraph.flowchart.terminator;whiteSpace=wrap;" parent="tFxSJcbVjkW49yoVQv_u-1" vertex="1">
          <mxGeometry x="1280" y="490" width="160" height="60" as="geometry" />
        </mxCell>
        <mxCell id="tFxSJcbVjkW49yoVQv_u-11" style="edgeStyle=orthogonalEdgeStyle;rounded=0;orthogonalLoop=1;jettySize=auto;html=1;entryX=0.75;entryY=0;entryDx=0;entryDy=0;exitX=0.75;exitY=1.025;exitDx=0;exitDy=0;exitPerimeter=0;endArrow=none;endFill=0;" parent="tFxSJcbVjkW49yoVQv_u-1" source="tFxSJcbVjkW49yoVQv_u-15" target="tFxSJcbVjkW49yoVQv_u-7" edge="1">
          <mxGeometry relative="1" as="geometry">
            <mxPoint x="1080" y="360" as="sourcePoint" />
          </mxGeometry>
        </mxCell>
        <mxCell id="tFxSJcbVjkW49yoVQv_u-12" value="public/index.php" style="text;html=1;align=center;verticalAlign=middle;resizable=0;points=[];autosize=1;strokeColor=none;fillColor=none;" parent="tFxSJcbVjkW49yoVQv_u-1" vertex="1">
          <mxGeometry x="465" y="560" width="110" height="30" as="geometry" />
        </mxCell>
        <mxCell id="tFxSJcbVjkW49yoVQv_u-13" value="src/Kernel.php" style="text;html=1;align=center;verticalAlign=middle;resizable=0;points=[];autosize=1;strokeColor=none;fillColor=none;" parent="tFxSJcbVjkW49yoVQv_u-1" vertex="1">
          <mxGeometry x="750" y="560" width="100" height="30" as="geometry" />
        </mxCell>
        <mxCell id="tFxSJcbVjkW49yoVQv_u-14" style="edgeStyle=orthogonalEdgeStyle;rounded=0;orthogonalLoop=1;jettySize=auto;html=1;entryX=0.75;entryY=1;entryDx=0;entryDy=0;exitX=0.75;exitY=0;exitDx=0;exitDy=0;exitPerimeter=0;" parent="tFxSJcbVjkW49yoVQv_u-1" source="tFxSJcbVjkW49yoVQv_u-19" target="tFxSJcbVjkW49yoVQv_u-7" edge="1">
          <mxGeometry relative="1" as="geometry">
            <mxPoint x="1120" y="680" as="sourcePoint" />
          </mxGeometry>
        </mxCell>
        <mxCell id="tFxSJcbVjkW49yoVQv_u-15" value="Databases" style="strokeWidth=2;html=1;shape=mxgraph.flowchart.database;whiteSpace=wrap;" parent="tFxSJcbVjkW49yoVQv_u-1" vertex="1">
          <mxGeometry x="1000" y="80" width="160" height="80" as="geometry" />
        </mxCell>
        <mxCell id="tFxSJcbVjkW49yoVQv_u-16" style="edgeStyle=orthogonalEdgeStyle;rounded=0;orthogonalLoop=1;jettySize=auto;html=1;entryX=0;entryY=0.5;entryDx=0;entryDy=0;entryPerimeter=0;" parent="tFxSJcbVjkW49yoVQv_u-1" source="tFxSJcbVjkW49yoVQv_u-7" target="tFxSJcbVjkW49yoVQv_u-10" edge="1">
          <mxGeometry relative="1" as="geometry" />
        </mxCell>
        <mxCell id="tFxSJcbVjkW49yoVQv_u-17" style="edgeStyle=orthogonalEdgeStyle;rounded=0;orthogonalLoop=1;jettySize=auto;html=1;entryX=0.25;entryY=1.013;entryDx=0;entryDy=0;entryPerimeter=0;endArrow=none;endFill=0;exitX=0.5;exitY=0;exitDx=0;exitDy=0;exitPerimeter=0;startArrow=none;startFill=0;" parent="tFxSJcbVjkW49yoVQv_u-1" source="tFxSJcbVjkW49yoVQv_u-18" target="tFxSJcbVjkW49yoVQv_u-15" edge="1">
          <mxGeometry relative="1" as="geometry">
            <mxPoint x="880" y="320" as="sourcePoint" />
          </mxGeometry>
        </mxCell>
        <mxCell id="tFxSJcbVjkW49yoVQv_u-18" value="Cache" style="strokeWidth=2;html=1;shape=mxgraph.flowchart.direct_data;whiteSpace=wrap;" parent="tFxSJcbVjkW49yoVQv_u-1" vertex="1">
          <mxGeometry x="990" y="290" width="100" height="60" as="geometry" />
        </mxCell>
        <mxCell id="tFxSJcbVjkW49yoVQv_u-19" value="Templates" style="strokeWidth=1;html=1;shape=mxgraph.flowchart.document2;whiteSpace=wrap;size=0.25;" parent="tFxSJcbVjkW49yoVQv_u-1" vertex="1">
          <mxGeometry x="1000" y="680" width="160" height="80" as="geometry" />
        </mxCell>
        <mxCell id="tFxSJcbVjkW49yoVQv_u-20" style="edgeStyle=orthogonalEdgeStyle;rounded=0;orthogonalLoop=1;jettySize=auto;html=1;entryX=0.25;entryY=1;entryDx=0;entryDy=0;exitX=0.25;exitY=0;exitDx=0;exitDy=0;" parent="tFxSJcbVjkW49yoVQv_u-1" target="tFxSJcbVjkW49yoVQv_u-22" edge="1">
          <mxGeometry relative="1" as="geometry">
            <mxPoint x="760" y="480" as="sourcePoint" />
          </mxGeometry>
        </mxCell>
        <mxCell id="tFxSJcbVjkW49yoVQv_u-21" style="edgeStyle=orthogonalEdgeStyle;rounded=0;orthogonalLoop=1;jettySize=auto;html=1;exitX=0.75;exitY=1;exitDx=0;exitDy=0;" parent="tFxSJcbVjkW49yoVQv_u-1" source="tFxSJcbVjkW49yoVQv_u-22" edge="1">
          <mxGeometry relative="1" as="geometry">
            <mxPoint x="840" y="480" as="targetPoint" />
          </mxGeometry>
        </mxCell>
        <mxCell id="tFxSJcbVjkW49yoVQv_u-22" value="Routing" style="rounded=0;whiteSpace=wrap;html=1;" parent="tFxSJcbVjkW49yoVQv_u-1" vertex="1">
          <mxGeometry x="720" y="280" width="160" height="80" as="geometry" />
        </mxCell>
        <mxCell id="tFxSJcbVjkW49yoVQv_u-23" style="edgeStyle=orthogonalEdgeStyle;rounded=0;orthogonalLoop=1;jettySize=auto;html=1;entryX=0.5;entryY=1;entryDx=0;entryDy=0;entryPerimeter=0;exitX=0.25;exitY=0;exitDx=0;exitDy=0;endArrow=none;endFill=0;" parent="tFxSJcbVjkW49yoVQv_u-1" source="tFxSJcbVjkW49yoVQv_u-7" target="tFxSJcbVjkW49yoVQv_u-18" edge="1">
          <mxGeometry relative="1" as="geometry" />
        </mxCell>
        <mxCell id="9fxciIHvsaQsYW9dtywq-4" value="Environment" style="text;html=1;align=center;verticalAlign=middle;resizable=0;points=[];autosize=1;strokeColor=none;fillColor=none;fontSize=18;" parent="tFxSJcbVjkW49yoVQv_u-1" vertex="1">
          <mxGeometry x="400" y="200" width="120" height="40" as="geometry" />
        </mxCell>
      </root>
    </mxGraphModel>
  </diagram>
  <diagram name="Controller" id="MDdU6RWuoMH7VYvuv_8p">
    <mxGraphModel dx="1550" dy="1128" grid="1" gridSize="10" guides="1" tooltips="1" connect="1" arrows="1" fold="1" page="1" pageScale="1" pageWidth="1600" pageHeight="1200" math="0" shadow="0">
      <root>
        <mxCell id="0" />
        <mxCell id="1" parent="0" />
        <mxCell id="UsoaZDjOVdxieOuJkQ57-5" style="edgeStyle=orthogonalEdgeStyle;rounded=0;orthogonalLoop=1;jettySize=auto;html=1;" parent="1" source="UsoaZDjOVdxieOuJkQ57-1" target="UsoaZDjOVdxieOuJkQ57-3" edge="1">
          <mxGeometry relative="1" as="geometry" />
        </mxCell>
        <mxCell id="UsoaZDjOVdxieOuJkQ57-1" value="Front Controller" style="rounded=0;whiteSpace=wrap;html=1;" parent="1" vertex="1">
          <mxGeometry x="440" y="480" width="160" height="80" as="geometry" />
        </mxCell>
        <mxCell id="UsoaZDjOVdxieOuJkQ57-6" style="edgeStyle=orthogonalEdgeStyle;rounded=0;orthogonalLoop=1;jettySize=auto;html=1;entryX=0;entryY=0.5;entryDx=0;entryDy=0;" parent="1" source="UsoaZDjOVdxieOuJkQ57-3" target="UsoaZDjOVdxieOuJkQ57-4" edge="1">
          <mxGeometry relative="1" as="geometry" />
        </mxCell>
        <mxCell id="UsoaZDjOVdxieOuJkQ57-3" value="Kernel" style="rounded=0;whiteSpace=wrap;html=1;" parent="1" vertex="1">
          <mxGeometry x="720" y="480" width="160" height="80" as="geometry" />
        </mxCell>
        <mxCell id="UsoaZDjOVdxieOuJkQ57-4" value="Controller" style="rounded=0;whiteSpace=wrap;html=1;" parent="1" vertex="1">
          <mxGeometry x="1000" y="480" width="160" height="80" as="geometry" />
        </mxCell>
        <mxCell id="UsoaZDjOVdxieOuJkQ57-21" style="edgeStyle=orthogonalEdgeStyle;rounded=0;orthogonalLoop=1;jettySize=auto;html=1;entryX=0;entryY=0.5;entryDx=0;entryDy=0;" parent="1" source="UsoaZDjOVdxieOuJkQ57-12" target="UsoaZDjOVdxieOuJkQ57-1" edge="1">
          <mxGeometry relative="1" as="geometry" />
        </mxCell>
        <mxCell id="UsoaZDjOVdxieOuJkQ57-12" value="Request" style="strokeWidth=2;html=1;shape=mxgraph.flowchart.terminator;whiteSpace=wrap;" parent="1" vertex="1">
          <mxGeometry x="160" y="490" width="160" height="60" as="geometry" />
        </mxCell>
        <mxCell id="UsoaZDjOVdxieOuJkQ57-16" value="Response" style="strokeWidth=2;html=1;shape=mxgraph.flowchart.terminator;whiteSpace=wrap;" parent="1" vertex="1">
          <mxGeometry x="1280" y="490" width="160" height="60" as="geometry" />
        </mxCell>
        <mxCell id="UsoaZDjOVdxieOuJkQ57-19" style="edgeStyle=orthogonalEdgeStyle;rounded=0;orthogonalLoop=1;jettySize=auto;html=1;entryX=0;entryY=0.5;entryDx=0;entryDy=0;entryPerimeter=0;" parent="1" source="UsoaZDjOVdxieOuJkQ57-4" target="UsoaZDjOVdxieOuJkQ57-16" edge="1">
          <mxGeometry relative="1" as="geometry" />
        </mxCell>
        <mxCell id="UsoaZDjOVdxieOuJkQ57-31" value="public/index.php" style="text;html=1;align=center;verticalAlign=middle;resizable=0;points=[];autosize=1;strokeColor=none;fillColor=none;" parent="1" vertex="1">
          <mxGeometry x="465" y="560" width="110" height="30" as="geometry" />
        </mxCell>
        <mxCell id="UsoaZDjOVdxieOuJkQ57-32" value="src/Kernel.php" style="text;html=1;align=center;verticalAlign=middle;resizable=0;points=[];autosize=1;strokeColor=none;fillColor=none;" parent="1" vertex="1">
          <mxGeometry x="750" y="560" width="100" height="30" as="geometry" />
        </mxCell>
      </root>
    </mxGraphModel>
  </diagram>
  <diagram name="Routing" id="10Izu4u8qryvTNVxO1JY">
    <mxGraphModel dx="1550" dy="1128" grid="1" gridSize="10" guides="1" tooltips="1" connect="1" arrows="1" fold="1" page="1" pageScale="1" pageWidth="1600" pageHeight="1200" math="0" shadow="0">
      <root>
        <mxCell id="aK0jPQPMPnF_35wL7-6X-0" />
        <mxCell id="aK0jPQPMPnF_35wL7-6X-1" parent="aK0jPQPMPnF_35wL7-6X-0" />
        <mxCell id="aK0jPQPMPnF_35wL7-6X-2" style="edgeStyle=orthogonalEdgeStyle;rounded=0;orthogonalLoop=1;jettySize=auto;html=1;" parent="aK0jPQPMPnF_35wL7-6X-1" source="aK0jPQPMPnF_35wL7-6X-3" target="aK0jPQPMPnF_35wL7-6X-8" edge="1">
          <mxGeometry relative="1" as="geometry" />
        </mxCell>
        <mxCell id="aK0jPQPMPnF_35wL7-6X-3" value="Front Controller" style="rounded=0;whiteSpace=wrap;html=1;" parent="aK0jPQPMPnF_35wL7-6X-1" vertex="1">
          <mxGeometry x="440" y="480" width="160" height="80" as="geometry" />
        </mxCell>
        <mxCell id="aK0jPQPMPnF_35wL7-6X-4" style="edgeStyle=orthogonalEdgeStyle;rounded=0;orthogonalLoop=1;jettySize=auto;html=1;entryX=0;entryY=0.5;entryDx=0;entryDy=0;" parent="aK0jPQPMPnF_35wL7-6X-1" source="aK0jPQPMPnF_35wL7-6X-8" target="aK0jPQPMPnF_35wL7-6X-9" edge="1">
          <mxGeometry relative="1" as="geometry" />
        </mxCell>
        <mxCell id="aK0jPQPMPnF_35wL7-6X-5" style="edgeStyle=orthogonalEdgeStyle;rounded=0;orthogonalLoop=1;jettySize=auto;html=1;entryX=0.25;entryY=1;entryDx=0;entryDy=0;exitX=0.25;exitY=0;exitDx=0;exitDy=0;" parent="aK0jPQPMPnF_35wL7-6X-1" source="aK0jPQPMPnF_35wL7-6X-8" target="aK0jPQPMPnF_35wL7-6X-11" edge="1">
          <mxGeometry relative="1" as="geometry" />
        </mxCell>
        <mxCell id="aK0jPQPMPnF_35wL7-6X-6" style="edgeStyle=orthogonalEdgeStyle;rounded=0;orthogonalLoop=1;jettySize=auto;html=1;entryX=0;entryY=0.5;entryDx=0;entryDy=0;" parent="aK0jPQPMPnF_35wL7-6X-1" source="aK0jPQPMPnF_35wL7-6X-8" target="aK0jPQPMPnF_35wL7-6X-23" edge="1">
          <mxGeometry relative="1" as="geometry" />
        </mxCell>
        <mxCell id="aK0jPQPMPnF_35wL7-6X-7" style="edgeStyle=orthogonalEdgeStyle;rounded=0;orthogonalLoop=1;jettySize=auto;html=1;entryX=0;entryY=0.5;entryDx=0;entryDy=0;" parent="aK0jPQPMPnF_35wL7-6X-1" source="aK0jPQPMPnF_35wL7-6X-8" target="aK0jPQPMPnF_35wL7-6X-22" edge="1">
          <mxGeometry relative="1" as="geometry" />
        </mxCell>
        <mxCell id="aK0jPQPMPnF_35wL7-6X-8" value="Kernel" style="rounded=0;whiteSpace=wrap;html=1;" parent="aK0jPQPMPnF_35wL7-6X-1" vertex="1">
          <mxGeometry x="720" y="480" width="160" height="80" as="geometry" />
        </mxCell>
        <mxCell id="aK0jPQPMPnF_35wL7-6X-9" value="Controller" style="rounded=0;whiteSpace=wrap;html=1;" parent="aK0jPQPMPnF_35wL7-6X-1" vertex="1">
          <mxGeometry x="1000" y="480" width="160" height="80" as="geometry" />
        </mxCell>
        <mxCell id="aK0jPQPMPnF_35wL7-6X-10" style="edgeStyle=orthogonalEdgeStyle;rounded=0;orthogonalLoop=1;jettySize=auto;html=1;exitX=0.75;exitY=1;exitDx=0;exitDy=0;" parent="aK0jPQPMPnF_35wL7-6X-1" source="aK0jPQPMPnF_35wL7-6X-11" edge="1">
          <mxGeometry relative="1" as="geometry">
            <mxPoint x="840" y="480" as="targetPoint" />
          </mxGeometry>
        </mxCell>
        <mxCell id="aK0jPQPMPnF_35wL7-6X-11" value="Routing" style="rounded=0;whiteSpace=wrap;html=1;" parent="aK0jPQPMPnF_35wL7-6X-1" vertex="1">
          <mxGeometry x="720" y="280" width="160" height="80" as="geometry" />
        </mxCell>
        <mxCell id="aK0jPQPMPnF_35wL7-6X-12" style="edgeStyle=orthogonalEdgeStyle;rounded=0;orthogonalLoop=1;jettySize=auto;html=1;entryX=0;entryY=0.5;entryDx=0;entryDy=0;" parent="aK0jPQPMPnF_35wL7-6X-1" source="aK0jPQPMPnF_35wL7-6X-13" target="aK0jPQPMPnF_35wL7-6X-3" edge="1">
          <mxGeometry relative="1" as="geometry" />
        </mxCell>
        <mxCell id="aK0jPQPMPnF_35wL7-6X-13" value="Request" style="strokeWidth=2;html=1;shape=mxgraph.flowchart.terminator;whiteSpace=wrap;" parent="aK0jPQPMPnF_35wL7-6X-1" vertex="1">
          <mxGeometry x="160" y="490" width="160" height="60" as="geometry" />
        </mxCell>
        <mxCell id="aK0jPQPMPnF_35wL7-6X-14" style="edgeStyle=orthogonalEdgeStyle;rounded=0;orthogonalLoop=1;jettySize=auto;html=1;entryX=0;entryY=0.5;entryDx=0;entryDy=0;" parent="aK0jPQPMPnF_35wL7-6X-1" source="aK0jPQPMPnF_35wL7-6X-15" target="aK0jPQPMPnF_35wL7-6X-3" edge="1">
          <mxGeometry relative="1" as="geometry" />
        </mxCell>
        <mxCell id="aK0jPQPMPnF_35wL7-6X-15" value="Request" style="strokeWidth=2;html=1;shape=mxgraph.flowchart.terminator;whiteSpace=wrap;" parent="aK0jPQPMPnF_35wL7-6X-1" vertex="1">
          <mxGeometry x="160" y="290" width="160" height="60" as="geometry" />
        </mxCell>
        <mxCell id="aK0jPQPMPnF_35wL7-6X-16" style="edgeStyle=orthogonalEdgeStyle;rounded=0;orthogonalLoop=1;jettySize=auto;html=1;entryX=0;entryY=0.5;entryDx=0;entryDy=0;" parent="aK0jPQPMPnF_35wL7-6X-1" source="aK0jPQPMPnF_35wL7-6X-17" target="aK0jPQPMPnF_35wL7-6X-3" edge="1">
          <mxGeometry relative="1" as="geometry" />
        </mxCell>
        <mxCell id="aK0jPQPMPnF_35wL7-6X-17" value="Request" style="strokeWidth=2;html=1;shape=mxgraph.flowchart.terminator;whiteSpace=wrap;" parent="aK0jPQPMPnF_35wL7-6X-1" vertex="1">
          <mxGeometry x="160" y="690" width="160" height="60" as="geometry" />
        </mxCell>
        <mxCell id="aK0jPQPMPnF_35wL7-6X-18" value="Response" style="strokeWidth=2;html=1;shape=mxgraph.flowchart.terminator;whiteSpace=wrap;" parent="aK0jPQPMPnF_35wL7-6X-1" vertex="1">
          <mxGeometry x="1280" y="490" width="160" height="60" as="geometry" />
        </mxCell>
        <mxCell id="aK0jPQPMPnF_35wL7-6X-19" value="Response" style="strokeWidth=2;html=1;shape=mxgraph.flowchart.terminator;whiteSpace=wrap;" parent="aK0jPQPMPnF_35wL7-6X-1" vertex="1">
          <mxGeometry x="1280" y="290" width="160" height="60" as="geometry" />
        </mxCell>
        <mxCell id="aK0jPQPMPnF_35wL7-6X-20" value="Response" style="strokeWidth=2;html=1;shape=mxgraph.flowchart.terminator;whiteSpace=wrap;" parent="aK0jPQPMPnF_35wL7-6X-1" vertex="1">
          <mxGeometry x="1280" y="690" width="160" height="60" as="geometry" />
        </mxCell>
        <mxCell id="aK0jPQPMPnF_35wL7-6X-21" style="edgeStyle=orthogonalEdgeStyle;rounded=0;orthogonalLoop=1;jettySize=auto;html=1;entryX=0;entryY=0.5;entryDx=0;entryDy=0;entryPerimeter=0;" parent="aK0jPQPMPnF_35wL7-6X-1" source="aK0jPQPMPnF_35wL7-6X-9" target="aK0jPQPMPnF_35wL7-6X-18" edge="1">
          <mxGeometry relative="1" as="geometry" />
        </mxCell>
        <mxCell id="aK0jPQPMPnF_35wL7-6X-22" value="Controller" style="rounded=0;whiteSpace=wrap;html=1;" parent="aK0jPQPMPnF_35wL7-6X-1" vertex="1">
          <mxGeometry x="1000" y="680" width="160" height="80" as="geometry" />
        </mxCell>
        <mxCell id="aK0jPQPMPnF_35wL7-6X-23" value="Controller" style="rounded=0;whiteSpace=wrap;html=1;" parent="aK0jPQPMPnF_35wL7-6X-1" vertex="1">
          <mxGeometry x="1000" y="280" width="160" height="80" as="geometry" />
        </mxCell>
        <mxCell id="aK0jPQPMPnF_35wL7-6X-24" style="edgeStyle=orthogonalEdgeStyle;rounded=0;orthogonalLoop=1;jettySize=auto;html=1;entryX=0;entryY=0.5;entryDx=0;entryDy=0;entryPerimeter=0;" parent="aK0jPQPMPnF_35wL7-6X-1" source="aK0jPQPMPnF_35wL7-6X-23" target="aK0jPQPMPnF_35wL7-6X-19" edge="1">
          <mxGeometry relative="1" as="geometry" />
        </mxCell>
        <mxCell id="aK0jPQPMPnF_35wL7-6X-25" style="edgeStyle=orthogonalEdgeStyle;rounded=0;orthogonalLoop=1;jettySize=auto;html=1;entryX=0;entryY=0.5;entryDx=0;entryDy=0;entryPerimeter=0;" parent="aK0jPQPMPnF_35wL7-6X-1" source="aK0jPQPMPnF_35wL7-6X-22" target="aK0jPQPMPnF_35wL7-6X-20" edge="1">
          <mxGeometry relative="1" as="geometry" />
        </mxCell>
        <mxCell id="aK0jPQPMPnF_35wL7-6X-26" value="public/index.php" style="text;html=1;align=center;verticalAlign=middle;resizable=0;points=[];autosize=1;strokeColor=none;fillColor=none;" parent="aK0jPQPMPnF_35wL7-6X-1" vertex="1">
          <mxGeometry x="465" y="560" width="110" height="30" as="geometry" />
        </mxCell>
        <mxCell id="aK0jPQPMPnF_35wL7-6X-27" value="src/Kernel.php" style="text;html=1;align=center;verticalAlign=middle;resizable=0;points=[];autosize=1;strokeColor=none;fillColor=none;" parent="aK0jPQPMPnF_35wL7-6X-1" vertex="1">
          <mxGeometry x="750" y="560" width="100" height="30" as="geometry" />
        </mxCell>
      </root>
    </mxGraphModel>
  </diagram>
  <diagram name="Templates" id="9Gv78hNrQnH_QKZpFVT-">
    <mxGraphModel dx="1550" dy="1128" grid="1" gridSize="10" guides="1" tooltips="1" connect="1" arrows="1" fold="1" page="1" pageScale="1" pageWidth="1600" pageHeight="1200" math="0" shadow="0">
      <root>
        <mxCell id="tj4pjSLbb3UEO3Axfd76-0" />
        <mxCell id="tj4pjSLbb3UEO3Axfd76-1" parent="tj4pjSLbb3UEO3Axfd76-0" />
        <mxCell id="tj4pjSLbb3UEO3Axfd76-2" style="edgeStyle=orthogonalEdgeStyle;rounded=0;orthogonalLoop=1;jettySize=auto;html=1;" parent="tj4pjSLbb3UEO3Axfd76-1" source="tj4pjSLbb3UEO3Axfd76-3" target="tj4pjSLbb3UEO3Axfd76-6" edge="1">
          <mxGeometry relative="1" as="geometry" />
        </mxCell>
        <mxCell id="tj4pjSLbb3UEO3Axfd76-3" value="Front Controller" style="rounded=0;whiteSpace=wrap;html=1;" parent="tj4pjSLbb3UEO3Axfd76-1" vertex="1">
          <mxGeometry x="440" y="480" width="160" height="80" as="geometry" />
        </mxCell>
        <mxCell id="tj4pjSLbb3UEO3Axfd76-4" style="edgeStyle=orthogonalEdgeStyle;rounded=0;orthogonalLoop=1;jettySize=auto;html=1;entryX=0;entryY=0.5;entryDx=0;entryDy=0;" parent="tj4pjSLbb3UEO3Axfd76-1" source="tj4pjSLbb3UEO3Axfd76-6" target="tj4pjSLbb3UEO3Axfd76-8" edge="1">
          <mxGeometry relative="1" as="geometry" />
        </mxCell>
        <mxCell id="tj4pjSLbb3UEO3Axfd76-6" value="Kernel" style="rounded=0;whiteSpace=wrap;html=1;" parent="tj4pjSLbb3UEO3Axfd76-1" vertex="1">
          <mxGeometry x="720" y="480" width="160" height="80" as="geometry" />
        </mxCell>
        <mxCell id="tj4pjSLbb3UEO3Axfd76-7" style="edgeStyle=orthogonalEdgeStyle;rounded=0;orthogonalLoop=1;jettySize=auto;html=1;entryX=0.25;entryY=0;entryDx=0;entryDy=0;exitX=0.25;exitY=1;exitDx=0;exitDy=0;" parent="tj4pjSLbb3UEO3Axfd76-1" edge="1">
          <mxGeometry relative="1" as="geometry">
            <mxPoint x="1040" y="360" as="sourcePoint" />
            <mxPoint x="1040" y="680" as="targetPoint" />
          </mxGeometry>
        </mxCell>
        <mxCell id="tj4pjSLbb3UEO3Axfd76-8" value="Controller" style="rounded=0;whiteSpace=wrap;html=1;" parent="tj4pjSLbb3UEO3Axfd76-1" vertex="1">
          <mxGeometry x="1000" y="480" width="160" height="80" as="geometry" />
        </mxCell>
        <mxCell id="tj4pjSLbb3UEO3Axfd76-11" style="edgeStyle=orthogonalEdgeStyle;rounded=0;orthogonalLoop=1;jettySize=auto;html=1;entryX=0;entryY=0.5;entryDx=0;entryDy=0;" parent="tj4pjSLbb3UEO3Axfd76-1" source="tj4pjSLbb3UEO3Axfd76-12" target="tj4pjSLbb3UEO3Axfd76-3" edge="1">
          <mxGeometry relative="1" as="geometry" />
        </mxCell>
        <mxCell id="tj4pjSLbb3UEO3Axfd76-12" value="Request" style="strokeWidth=2;html=1;shape=mxgraph.flowchart.terminator;whiteSpace=wrap;" parent="tj4pjSLbb3UEO3Axfd76-1" vertex="1">
          <mxGeometry x="160" y="490" width="160" height="60" as="geometry" />
        </mxCell>
        <mxCell id="tj4pjSLbb3UEO3Axfd76-17" value="Response" style="strokeWidth=2;html=1;shape=mxgraph.flowchart.terminator;whiteSpace=wrap;" parent="tj4pjSLbb3UEO3Axfd76-1" vertex="1">
          <mxGeometry x="1280" y="490" width="160" height="60" as="geometry" />
        </mxCell>
        <mxCell id="tj4pjSLbb3UEO3Axfd76-19" style="edgeStyle=orthogonalEdgeStyle;rounded=0;orthogonalLoop=1;jettySize=auto;html=1;entryX=0.75;entryY=0;entryDx=0;entryDy=0;exitX=0.75;exitY=1.025;exitDx=0;exitDy=0;exitPerimeter=0;endArrow=none;endFill=0;" parent="tj4pjSLbb3UEO3Axfd76-1" source="tj4pjSLbb3UEO3Axfd76-26" target="tj4pjSLbb3UEO3Axfd76-8" edge="1">
          <mxGeometry relative="1" as="geometry">
            <mxPoint x="1080" y="360" as="sourcePoint" />
          </mxGeometry>
        </mxCell>
        <mxCell id="tj4pjSLbb3UEO3Axfd76-20" value="public/index.php" style="text;html=1;align=center;verticalAlign=middle;resizable=0;points=[];autosize=1;strokeColor=none;fillColor=none;" parent="tj4pjSLbb3UEO3Axfd76-1" vertex="1">
          <mxGeometry x="465" y="560" width="110" height="30" as="geometry" />
        </mxCell>
        <mxCell id="tj4pjSLbb3UEO3Axfd76-21" value="src/Kernel.php" style="text;html=1;align=center;verticalAlign=middle;resizable=0;points=[];autosize=1;strokeColor=none;fillColor=none;" parent="tj4pjSLbb3UEO3Axfd76-1" vertex="1">
          <mxGeometry x="750" y="560" width="100" height="30" as="geometry" />
        </mxCell>
        <mxCell id="tj4pjSLbb3UEO3Axfd76-22" style="edgeStyle=orthogonalEdgeStyle;rounded=0;orthogonalLoop=1;jettySize=auto;html=1;entryX=0.75;entryY=1;entryDx=0;entryDy=0;exitX=0.75;exitY=0;exitDx=0;exitDy=0;exitPerimeter=0;" parent="tj4pjSLbb3UEO3Axfd76-1" source="T7-00P5015HYJlVUWV-9-6" target="tj4pjSLbb3UEO3Axfd76-8" edge="1">
          <mxGeometry relative="1" as="geometry">
            <mxPoint x="1120" y="680" as="sourcePoint" />
          </mxGeometry>
        </mxCell>
        <mxCell id="tj4pjSLbb3UEO3Axfd76-26" value="Databases" style="strokeWidth=2;html=1;shape=mxgraph.flowchart.database;whiteSpace=wrap;" parent="tj4pjSLbb3UEO3Axfd76-1" vertex="1">
          <mxGeometry x="1000" y="80" width="160" height="80" as="geometry" />
        </mxCell>
        <mxCell id="tj4pjSLbb3UEO3Axfd76-27" style="edgeStyle=orthogonalEdgeStyle;rounded=0;orthogonalLoop=1;jettySize=auto;html=1;entryX=0;entryY=0.5;entryDx=0;entryDy=0;entryPerimeter=0;" parent="tj4pjSLbb3UEO3Axfd76-1" source="tj4pjSLbb3UEO3Axfd76-8" target="tj4pjSLbb3UEO3Axfd76-17" edge="1">
          <mxGeometry relative="1" as="geometry" />
        </mxCell>
        <mxCell id="T7-00P5015HYJlVUWV-9-4" style="edgeStyle=orthogonalEdgeStyle;rounded=0;orthogonalLoop=1;jettySize=auto;html=1;entryX=0.25;entryY=1.013;entryDx=0;entryDy=0;entryPerimeter=0;endArrow=none;endFill=0;exitX=0.5;exitY=0;exitDx=0;exitDy=0;exitPerimeter=0;startArrow=none;startFill=0;" parent="tj4pjSLbb3UEO3Axfd76-1" source="T7-00P5015HYJlVUWV-9-5" target="tj4pjSLbb3UEO3Axfd76-26" edge="1">
          <mxGeometry relative="1" as="geometry">
            <mxPoint x="880" y="320" as="sourcePoint" />
          </mxGeometry>
        </mxCell>
        <mxCell id="T7-00P5015HYJlVUWV-9-5" value="Cache" style="strokeWidth=2;html=1;shape=mxgraph.flowchart.direct_data;whiteSpace=wrap;" parent="tj4pjSLbb3UEO3Axfd76-1" vertex="1">
          <mxGeometry x="990" y="290" width="100" height="60" as="geometry" />
        </mxCell>
        <mxCell id="T7-00P5015HYJlVUWV-9-6" value="Templates" style="strokeWidth=1;html=1;shape=mxgraph.flowchart.document2;whiteSpace=wrap;size=0.25;" parent="tj4pjSLbb3UEO3Axfd76-1" vertex="1">
          <mxGeometry x="1000" y="680" width="160" height="80" as="geometry" />
        </mxCell>
        <mxCell id="Mi_UZWfCTwYI70V3yGZt-0" style="edgeStyle=orthogonalEdgeStyle;rounded=0;orthogonalLoop=1;jettySize=auto;html=1;entryX=0.25;entryY=1;entryDx=0;entryDy=0;exitX=0.25;exitY=0;exitDx=0;exitDy=0;" parent="tj4pjSLbb3UEO3Axfd76-1" target="Mi_UZWfCTwYI70V3yGZt-2" edge="1">
          <mxGeometry relative="1" as="geometry">
            <mxPoint x="760" y="480" as="sourcePoint" />
          </mxGeometry>
        </mxCell>
        <mxCell id="Mi_UZWfCTwYI70V3yGZt-1" style="edgeStyle=orthogonalEdgeStyle;rounded=0;orthogonalLoop=1;jettySize=auto;html=1;exitX=0.75;exitY=1;exitDx=0;exitDy=0;" parent="tj4pjSLbb3UEO3Axfd76-1" source="Mi_UZWfCTwYI70V3yGZt-2" edge="1">
          <mxGeometry relative="1" as="geometry">
            <mxPoint x="840" y="480" as="targetPoint" />
          </mxGeometry>
        </mxCell>
        <mxCell id="Mi_UZWfCTwYI70V3yGZt-2" value="Routing" style="rounded=0;whiteSpace=wrap;html=1;" parent="tj4pjSLbb3UEO3Axfd76-1" vertex="1">
          <mxGeometry x="720" y="280" width="160" height="80" as="geometry" />
        </mxCell>
        <mxCell id="aKlLW9bGaKvcKPNoz3-u-0" style="edgeStyle=orthogonalEdgeStyle;rounded=0;orthogonalLoop=1;jettySize=auto;html=1;entryX=0.5;entryY=1;entryDx=0;entryDy=0;entryPerimeter=0;exitX=0.25;exitY=0;exitDx=0;exitDy=0;endArrow=none;endFill=0;" parent="tj4pjSLbb3UEO3Axfd76-1" source="tj4pjSLbb3UEO3Axfd76-8" target="T7-00P5015HYJlVUWV-9-5" edge="1">
          <mxGeometry relative="1" as="geometry" />
        </mxCell>
        <mxCell id="FrubXbgjtLNu9BsJBXkQ-1" value="&lt;p style=&quot;margin: 0px; font-variant-numeric: normal; font-variant-east-asian: normal; font-variant-alternates: normal; font-kerning: auto; font-optical-sizing: auto; font-feature-settings: normal; font-variation-settings: normal; font-variant-position: normal; font-stretch: normal; line-height: normal; font-family: &amp;quot;Helvetica Neue&amp;quot;; text-align: start;&quot; class=&quot;p1&quot;&gt;&lt;font style=&quot;font-size: 12px;&quot;&gt;dashboard&lt;/font&gt;&lt;/p&gt;" style="rounded=1;whiteSpace=wrap;html=1;absoluteArcSize=1;arcSize=14;strokeWidth=1;fontStyle=0" parent="tj4pjSLbb3UEO3Axfd76-1" vertex="1">
          <mxGeometry x="1160" y="900" width="80" height="40" as="geometry" />
        </mxCell>
        <mxCell id="FrubXbgjtLNu9BsJBXkQ-2" value="corporate" style="rounded=1;whiteSpace=wrap;html=1;absoluteArcSize=1;arcSize=14;strokeWidth=1;" parent="tj4pjSLbb3UEO3Axfd76-1" vertex="1">
          <mxGeometry x="920" y="900" width="80" height="40" as="geometry" />
        </mxCell>
        <mxCell id="FrubXbgjtLNu9BsJBXkQ-3" style="edgeStyle=orthogonalEdgeStyle;rounded=0;orthogonalLoop=1;jettySize=auto;html=1;endArrow=none;endFill=0;exitX=0.5;exitY=0.863;exitDx=0;exitDy=0;exitPerimeter=0;" parent="tj4pjSLbb3UEO3Axfd76-1" source="T7-00P5015HYJlVUWV-9-6" target="FrubXbgjtLNu9BsJBXkQ-0" edge="1">
          <mxGeometry relative="1" as="geometry">
            <mxPoint x="1080" y="760" as="sourcePoint" />
          </mxGeometry>
        </mxCell>
        <mxCell id="FrubXbgjtLNu9BsJBXkQ-4" style="edgeStyle=orthogonalEdgeStyle;rounded=0;orthogonalLoop=1;jettySize=auto;html=1;entryX=0.5;entryY=0;entryDx=0;entryDy=0;endArrow=none;endFill=0;exitX=0.5;exitY=1;exitDx=0;exitDy=0;" parent="tj4pjSLbb3UEO3Axfd76-1" source="FrubXbgjtLNu9BsJBXkQ-0" target="FrubXbgjtLNu9BsJBXkQ-2" edge="1">
          <mxGeometry relative="1" as="geometry">
            <mxPoint x="1080" y="751" as="sourcePoint" />
            <Array as="points">
              <mxPoint x="1080" y="880" />
              <mxPoint x="960" y="880" />
            </Array>
          </mxGeometry>
        </mxCell>
        <mxCell id="FrubXbgjtLNu9BsJBXkQ-5" style="edgeStyle=orthogonalEdgeStyle;rounded=0;orthogonalLoop=1;jettySize=auto;html=1;entryX=0.5;entryY=0;entryDx=0;entryDy=0;exitX=0.5;exitY=1;exitDx=0;exitDy=0;endArrow=none;endFill=0;" parent="tj4pjSLbb3UEO3Axfd76-1" source="FrubXbgjtLNu9BsJBXkQ-0" target="FrubXbgjtLNu9BsJBXkQ-1" edge="1">
          <mxGeometry relative="1" as="geometry">
            <mxPoint x="1080" y="760" as="sourcePoint" />
            <Array as="points">
              <mxPoint x="1080" y="880" />
              <mxPoint x="1200" y="880" />
            </Array>
          </mxGeometry>
        </mxCell>
        <mxCell id="SDVpZ2Qcb1a5dVaejCr1-0" value="Themes" style="text;html=1;align=center;verticalAlign=middle;resizable=0;points=[];autosize=1;strokeColor=none;fillColor=none;" parent="tj4pjSLbb3UEO3Axfd76-1" vertex="1">
          <mxGeometry x="1045" y="880" width="70" height="30" as="geometry" />
        </mxCell>
        <mxCell id="SDVpZ2Qcb1a5dVaejCr1-1" value="" style="edgeStyle=orthogonalEdgeStyle;rounded=0;orthogonalLoop=1;jettySize=auto;html=1;entryX=0.5;entryY=0;entryDx=0;entryDy=0;exitX=0.5;exitY=0.888;exitDx=0;exitDy=0;endArrow=none;endFill=0;exitPerimeter=0;" parent="tj4pjSLbb3UEO3Axfd76-1" source="T7-00P5015HYJlVUWV-9-6" target="FrubXbgjtLNu9BsJBXkQ-0" edge="1">
          <mxGeometry relative="1" as="geometry">
            <mxPoint x="1080" y="751" as="sourcePoint" />
            <mxPoint x="1200" y="900" as="targetPoint" />
          </mxGeometry>
        </mxCell>
        <mxCell id="FrubXbgjtLNu9BsJBXkQ-0" value="&lt;p style=&quot;margin: 0px; font-variant-numeric: normal; font-variant-east-asian: normal; font-variant-alternates: normal; font-kerning: auto; font-optical-sizing: auto; font-feature-settings: normal; font-variation-settings: normal; font-variant-position: normal; font-stretch: normal; line-height: normal; font-family: &amp;quot;Helvetica Neue&amp;quot;; text-align: start;&quot; class=&quot;p1&quot;&gt;&lt;font style=&quot;font-size: 12px;&quot;&gt;base&lt;/font&gt;&lt;/p&gt;" style="rounded=1;whiteSpace=wrap;html=1;absoluteArcSize=1;arcSize=14;strokeWidth=1;fontStyle=0" parent="tj4pjSLbb3UEO3Axfd76-1" vertex="1">
          <mxGeometry x="1040" y="800" width="80" height="40" as="geometry" />
        </mxCell>
      </root>
    </mxGraphModel>
  </diagram>
  <diagram name="Services" id="RxOxSqkB1Rss9njmbyAN">
    <mxGraphModel dx="1550" dy="1128" grid="1" gridSize="10" guides="1" tooltips="1" connect="1" arrows="1" fold="1" page="1" pageScale="1" pageWidth="1600" pageHeight="1200" math="0" shadow="0">
      <root>
        <mxCell id="ck3x6nscV3yC2zILSED3-0" />
        <mxCell id="ck3x6nscV3yC2zILSED3-1" parent="ck3x6nscV3yC2zILSED3-0" />
        <mxCell id="ck3x6nscV3yC2zILSED3-2" style="edgeStyle=orthogonalEdgeStyle;rounded=0;orthogonalLoop=1;jettySize=auto;html=1;" parent="ck3x6nscV3yC2zILSED3-1" source="ck3x6nscV3yC2zILSED3-3" target="ck3x6nscV3yC2zILSED3-5" edge="1">
          <mxGeometry relative="1" as="geometry" />
        </mxCell>
        <mxCell id="ck3x6nscV3yC2zILSED3-3" value="Front Controller" style="rounded=0;whiteSpace=wrap;html=1;" parent="ck3x6nscV3yC2zILSED3-1" vertex="1">
          <mxGeometry x="440" y="480" width="160" height="80" as="geometry" />
        </mxCell>
        <mxCell id="ck3x6nscV3yC2zILSED3-4" style="edgeStyle=orthogonalEdgeStyle;rounded=0;orthogonalLoop=1;jettySize=auto;html=1;entryX=0;entryY=0.5;entryDx=0;entryDy=0;exitX=1;exitY=0.5;exitDx=0;exitDy=0;" parent="ck3x6nscV3yC2zILSED3-1" source="ck3x6nscV3yC2zILSED3-5" target="ck3x6nscV3yC2zILSED3-7" edge="1">
          <mxGeometry relative="1" as="geometry" />
        </mxCell>
        <mxCell id="ck3x6nscV3yC2zILSED3-5" value="Kernel" style="rounded=0;whiteSpace=wrap;html=1;" parent="ck3x6nscV3yC2zILSED3-1" vertex="1">
          <mxGeometry x="720" y="480" width="160" height="80" as="geometry" />
        </mxCell>
        <mxCell id="7xcsRBeDKXEMmsKC6-Th-0" style="edgeStyle=orthogonalEdgeStyle;rounded=0;orthogonalLoop=1;jettySize=auto;html=1;entryX=0.25;entryY=0;entryDx=0;entryDy=0;exitX=0.25;exitY=1;exitDx=0;exitDy=0;" parent="ck3x6nscV3yC2zILSED3-1" source="ck3x6nscV3yC2zILSED3-7" target="fgR_OxpgzgNBVaFA-eZL-6" edge="1">
          <mxGeometry relative="1" as="geometry" />
        </mxCell>
        <mxCell id="ck3x6nscV3yC2zILSED3-7" value="Controller" style="rounded=0;whiteSpace=wrap;html=1;" parent="ck3x6nscV3yC2zILSED3-1" vertex="1">
          <mxGeometry x="1000" y="480" width="160" height="80" as="geometry" />
        </mxCell>
        <mxCell id="ck3x6nscV3yC2zILSED3-8" style="edgeStyle=orthogonalEdgeStyle;rounded=0;orthogonalLoop=1;jettySize=auto;html=1;entryX=0;entryY=0.5;entryDx=0;entryDy=0;" parent="ck3x6nscV3yC2zILSED3-1" source="ck3x6nscV3yC2zILSED3-9" target="ck3x6nscV3yC2zILSED3-3" edge="1">
          <mxGeometry relative="1" as="geometry" />
        </mxCell>
        <mxCell id="ck3x6nscV3yC2zILSED3-9" value="Request" style="strokeWidth=2;html=1;shape=mxgraph.flowchart.terminator;whiteSpace=wrap;" parent="ck3x6nscV3yC2zILSED3-1" vertex="1">
          <mxGeometry x="160" y="490" width="160" height="60" as="geometry" />
        </mxCell>
        <mxCell id="ck3x6nscV3yC2zILSED3-14" value="Response" style="strokeWidth=2;html=1;shape=mxgraph.flowchart.terminator;whiteSpace=wrap;" parent="ck3x6nscV3yC2zILSED3-1" vertex="1">
          <mxGeometry x="1280" y="490" width="160" height="60" as="geometry" />
        </mxCell>
        <mxCell id="ck3x6nscV3yC2zILSED3-15" style="edgeStyle=orthogonalEdgeStyle;rounded=0;orthogonalLoop=1;jettySize=auto;html=1;entryX=0.75;entryY=0;entryDx=0;entryDy=0;exitX=0.75;exitY=1.025;exitDx=0;exitDy=0;exitPerimeter=0;endArrow=none;endFill=0;" parent="ck3x6nscV3yC2zILSED3-1" source="ck3x6nscV3yC2zILSED3-20" target="ck3x6nscV3yC2zILSED3-7" edge="1">
          <mxGeometry relative="1" as="geometry">
            <mxPoint x="1080" y="360" as="sourcePoint" />
          </mxGeometry>
        </mxCell>
        <mxCell id="ck3x6nscV3yC2zILSED3-16" value="public/index.php" style="text;html=1;align=center;verticalAlign=middle;resizable=0;points=[];autosize=1;strokeColor=none;fillColor=none;" parent="ck3x6nscV3yC2zILSED3-1" vertex="1">
          <mxGeometry x="465" y="560" width="110" height="30" as="geometry" />
        </mxCell>
        <mxCell id="ck3x6nscV3yC2zILSED3-17" value="src/Kernel.php" style="text;html=1;align=center;verticalAlign=middle;resizable=0;points=[];autosize=1;strokeColor=none;fillColor=none;" parent="ck3x6nscV3yC2zILSED3-1" vertex="1">
          <mxGeometry x="750" y="560" width="100" height="30" as="geometry" />
        </mxCell>
        <mxCell id="ck3x6nscV3yC2zILSED3-20" value="Databases" style="strokeWidth=2;html=1;shape=mxgraph.flowchart.database;whiteSpace=wrap;" parent="ck3x6nscV3yC2zILSED3-1" vertex="1">
          <mxGeometry x="1000" y="80" width="160" height="80" as="geometry" />
        </mxCell>
        <mxCell id="ck3x6nscV3yC2zILSED3-21" style="edgeStyle=orthogonalEdgeStyle;rounded=0;orthogonalLoop=1;jettySize=auto;html=1;entryX=0;entryY=0.5;entryDx=0;entryDy=0;entryPerimeter=0;" parent="ck3x6nscV3yC2zILSED3-1" source="ck3x6nscV3yC2zILSED3-7" target="ck3x6nscV3yC2zILSED3-14" edge="1">
          <mxGeometry relative="1" as="geometry" />
        </mxCell>
        <mxCell id="ck3x6nscV3yC2zILSED3-25" style="edgeStyle=orthogonalEdgeStyle;rounded=0;orthogonalLoop=1;jettySize=auto;html=1;entryX=0.25;entryY=1;entryDx=0;entryDy=0;exitX=0.25;exitY=0;exitDx=0;exitDy=0;" parent="ck3x6nscV3yC2zILSED3-1" target="ck3x6nscV3yC2zILSED3-27" edge="1">
          <mxGeometry relative="1" as="geometry">
            <mxPoint x="760" y="480" as="sourcePoint" />
          </mxGeometry>
        </mxCell>
        <mxCell id="ck3x6nscV3yC2zILSED3-26" style="edgeStyle=orthogonalEdgeStyle;rounded=0;orthogonalLoop=1;jettySize=auto;html=1;exitX=0.75;exitY=1;exitDx=0;exitDy=0;" parent="ck3x6nscV3yC2zILSED3-1" source="ck3x6nscV3yC2zILSED3-27" edge="1">
          <mxGeometry relative="1" as="geometry">
            <mxPoint x="840" y="480" as="targetPoint" />
          </mxGeometry>
        </mxCell>
        <mxCell id="ck3x6nscV3yC2zILSED3-27" value="Routing" style="rounded=0;whiteSpace=wrap;html=1;" parent="ck3x6nscV3yC2zILSED3-1" vertex="1">
          <mxGeometry x="720" y="280" width="160" height="80" as="geometry" />
        </mxCell>
        <mxCell id="fgR_OxpgzgNBVaFA-eZL-0" value="&lt;p style=&quot;margin: 0px; font-variant-numeric: normal; font-variant-east-asian: normal; font-variant-alternates: normal; font-kerning: auto; font-optical-sizing: auto; font-feature-settings: normal; font-variation-settings: normal; font-variant-position: normal; font-stretch: normal; line-height: normal; font-family: &amp;quot;Helvetica Neue&amp;quot;; text-align: start;&quot; class=&quot;p1&quot;&gt;&lt;font style=&quot;font-size: 12px;&quot;&gt;Structural&lt;/font&gt;&lt;/p&gt;" style="rounded=1;whiteSpace=wrap;html=1;absoluteArcSize=1;arcSize=14;strokeWidth=1;fontStyle=0" parent="ck3x6nscV3yC2zILSED3-1" vertex="1">
          <mxGeometry x="1040" y="900" width="80" height="40" as="geometry" />
        </mxCell>
        <mxCell id="fgR_OxpgzgNBVaFA-eZL-1" value="&lt;p style=&quot;margin: 0px; font-variant-numeric: normal; font-variant-east-asian: normal; font-variant-alternates: normal; font-kerning: auto; font-optical-sizing: auto; font-feature-settings: normal; font-variation-settings: normal; font-variant-position: normal; font-stretch: normal; line-height: normal; font-family: &amp;quot;Helvetica Neue&amp;quot;; text-align: start;&quot; class=&quot;p1&quot;&gt;&lt;font style=&quot;font-size: 12px;&quot;&gt;Behavioral&lt;/font&gt;&lt;/p&gt;" style="rounded=1;whiteSpace=wrap;html=1;absoluteArcSize=1;arcSize=14;strokeWidth=1;fontStyle=0" parent="ck3x6nscV3yC2zILSED3-1" vertex="1">
          <mxGeometry x="1160" y="900" width="80" height="40" as="geometry" />
        </mxCell>
        <mxCell id="fgR_OxpgzgNBVaFA-eZL-2" value="&lt;p style=&quot;margin: 0px; font-variant-numeric: normal; font-variant-east-asian: normal; font-variant-alternates: normal; font-kerning: auto; font-optical-sizing: auto; font-feature-settings: normal; font-variation-settings: normal; font-variant-position: normal; font-stretch: normal; line-height: normal; font-family: &amp;quot;Helvetica Neue&amp;quot;; text-align: start;&quot; class=&quot;p1&quot;&gt;&lt;font style=&quot;font-size: 12px;&quot;&gt;Creational&lt;/font&gt;&lt;/p&gt;" style="rounded=1;whiteSpace=wrap;html=1;absoluteArcSize=1;arcSize=14;strokeWidth=1;" parent="ck3x6nscV3yC2zILSED3-1" vertex="1">
          <mxGeometry x="920" y="900" width="80" height="40" as="geometry" />
        </mxCell>
        <mxCell id="fgR_OxpgzgNBVaFA-eZL-3" style="edgeStyle=orthogonalEdgeStyle;rounded=0;orthogonalLoop=1;jettySize=auto;html=1;endArrow=none;endFill=0;" parent="ck3x6nscV3yC2zILSED3-1" source="fgR_OxpgzgNBVaFA-eZL-6" target="fgR_OxpgzgNBVaFA-eZL-0" edge="1">
          <mxGeometry relative="1" as="geometry" />
        </mxCell>
        <mxCell id="fgR_OxpgzgNBVaFA-eZL-4" style="edgeStyle=orthogonalEdgeStyle;rounded=0;orthogonalLoop=1;jettySize=auto;html=1;entryX=0.5;entryY=0;entryDx=0;entryDy=0;exitX=0.5;exitY=1;exitDx=0;exitDy=0;endArrow=none;endFill=0;" parent="ck3x6nscV3yC2zILSED3-1" source="fgR_OxpgzgNBVaFA-eZL-6" target="fgR_OxpgzgNBVaFA-eZL-2" edge="1">
          <mxGeometry relative="1" as="geometry">
            <mxPoint x="1080" y="760" as="sourcePoint" />
            <Array as="points">
              <mxPoint x="1080" y="840" />
              <mxPoint x="960" y="840" />
            </Array>
          </mxGeometry>
        </mxCell>
        <mxCell id="fgR_OxpgzgNBVaFA-eZL-5" style="edgeStyle=orthogonalEdgeStyle;rounded=0;orthogonalLoop=1;jettySize=auto;html=1;entryX=0.5;entryY=0;entryDx=0;entryDy=0;exitX=0.5;exitY=1;exitDx=0;exitDy=0;endArrow=none;endFill=0;" parent="ck3x6nscV3yC2zILSED3-1" source="fgR_OxpgzgNBVaFA-eZL-6" target="fgR_OxpgzgNBVaFA-eZL-1" edge="1">
          <mxGeometry relative="1" as="geometry">
            <Array as="points">
              <mxPoint x="1080" y="840" />
              <mxPoint x="1200" y="840" />
            </Array>
          </mxGeometry>
        </mxCell>
        <mxCell id="7xcsRBeDKXEMmsKC6-Th-1" style="edgeStyle=orthogonalEdgeStyle;rounded=0;orthogonalLoop=1;jettySize=auto;html=1;entryX=0.75;entryY=1;entryDx=0;entryDy=0;exitX=0.75;exitY=0;exitDx=0;exitDy=0;" parent="ck3x6nscV3yC2zILSED3-1" source="fgR_OxpgzgNBVaFA-eZL-6" target="ck3x6nscV3yC2zILSED3-7" edge="1">
          <mxGeometry relative="1" as="geometry" />
        </mxCell>
        <mxCell id="fgR_OxpgzgNBVaFA-eZL-6" value="Design Patterns" style="verticalLabelPosition=middle;verticalAlign=middle;html=1;shape=trapezoid;perimeter=trapezoidPerimeter;whiteSpace=wrap;size=0.23;arcSize=10;flipV=1;labelPosition=center;align=center;" parent="ck3x6nscV3yC2zILSED3-1" vertex="1">
          <mxGeometry x="1000" y="680" width="160" height="80" as="geometry" />
        </mxCell>
        <mxCell id="A9Lc6VfuCVMPdBFONV_5-0" style="edgeStyle=orthogonalEdgeStyle;rounded=0;orthogonalLoop=1;jettySize=auto;html=1;entryX=0.25;entryY=1.013;entryDx=0;entryDy=0;entryPerimeter=0;endArrow=none;endFill=0;exitX=0.5;exitY=0;exitDx=0;exitDy=0;exitPerimeter=0;" parent="ck3x6nscV3yC2zILSED3-1" source="A9Lc6VfuCVMPdBFONV_5-1" edge="1">
          <mxGeometry relative="1" as="geometry">
            <mxPoint x="880" y="320" as="sourcePoint" />
            <mxPoint x="1040" y="161" as="targetPoint" />
          </mxGeometry>
        </mxCell>
        <mxCell id="A9Lc6VfuCVMPdBFONV_5-1" value="Cache" style="strokeWidth=2;html=1;shape=mxgraph.flowchart.direct_data;whiteSpace=wrap;" parent="ck3x6nscV3yC2zILSED3-1" vertex="1">
          <mxGeometry x="990" y="290" width="100" height="60" as="geometry" />
        </mxCell>
        <mxCell id="A9Lc6VfuCVMPdBFONV_5-2" style="edgeStyle=orthogonalEdgeStyle;rounded=0;orthogonalLoop=1;jettySize=auto;html=1;entryX=0.5;entryY=1;entryDx=0;entryDy=0;entryPerimeter=0;exitX=0.25;exitY=0;exitDx=0;exitDy=0;endArrow=none;endFill=0;" parent="ck3x6nscV3yC2zILSED3-1" target="A9Lc6VfuCVMPdBFONV_5-1" edge="1">
          <mxGeometry relative="1" as="geometry">
            <mxPoint x="1040" y="480" as="sourcePoint" />
          </mxGeometry>
        </mxCell>
      </root>
    </mxGraphModel>
  </diagram>
</mxfile>
